<?xml version="1.0" encoding="UTF-8" standalone="no"?>
<!DOCTYPE svg PUBLIC "-//W3C//DTD SVG 1.1//EN"
 "http://www.w3.org/Graphics/SVG/1.1/DTD/svg11.dtd">
<!-- Generated by graphviz version 2.43.0 (0)
 -->
<!-- Title: %3 Pages: 1 -->
<svg width="887pt" height="166pt"
 viewBox="0.00 0.00 887.00 165.50" xmlns="http://www.w3.org/2000/svg" xmlns:xlink="http://www.w3.org/1999/xlink">
<g id="graph0" class="graph" transform="scale(1 1) rotate(0) translate(4 161.5)">
<title>%3</title>
<polygon fill="#ffffff" stroke="transparent" points="-4,4 -4,-161.5 883,-161.5 883,4 -4,4"/>
<!-- X1 -->
<g id="node1" class="node">
<title>X1</title>
<polygon fill="#ffffff" stroke="black" points="300,-127.5 0,-127.5 0,-12.5 300,-12.5 300,-127.5"/>
<polygon fill="none" stroke="black" points="0,-104 0,-127 300,-127 300,-104 0,-104"/>
<text text-anchor="start" x="141.5" y="-111.8" font-family="arial" font-size="14.00">X1</text>
<polygon fill="none" stroke="black" points="0,-81 0,-104 204,-104 204,-81 0,-81"/>
<text text-anchor="start" x="4" y="-88.8" font-family="arial" font-size="14.00">ISO 11446, W12&#45;T13&#45;61 TESAT</text>
<polygon fill="none" stroke="black" points="204,-81 204,-104 254,-104 254,-81 204,-81"/>
<text text-anchor="start" x="208" y="-88.8" font-family="arial" font-size="14.00">female</text>
<polygon fill="none" stroke="black" points="254,-81 254,-104 300,-104 300,-81 254,-81"/>
<text text-anchor="start" x="258" y="-88.8" font-family="arial" font-size="14.00">13&#45;pin</text>
<polygon fill="none" stroke="black" points="0,-58 0,-81 300,-81 300,-58 0,-58"/>
<text text-anchor="start" x="146" y="-65.8" font-family="arial" font-size="14.00">9</text>
<polygon fill="none" stroke="black" points="0,-35 0,-58 300,-58 300,-35 0,-35"/>
<text text-anchor="start" x="142" y="-42.8" font-family="arial" font-size="14.00">13</text>
<polygon fill="none" stroke="black" points="0,-12 0,-35 300,-35 300,-12 0,-12"/>
<text text-anchor="start" x="51.5" y="-19.8" font-family="arial" font-size="14.00">Unconnected pins are not shown</text>
</g>
<!-- C1 -->
<g id="node3" class="node">
<title>C1</title>
<polygon fill="#ffffff" stroke="black" points="611,-157.5 444,-157.5 444,-0.5 611,-0.5 611,-157.5"/>
<polygon fill="none" stroke="black" points="444.5,-134 444.5,-157 611.5,-157 611.5,-134 444.5,-134"/>
<text text-anchor="start" x="519" y="-141.8" font-family="arial" font-size="14.00">C1</text>
<polygon fill="none" stroke="black" points="444.5,-111 444.5,-134 481.5,-134 481.5,-111 444.5,-111"/>
<text text-anchor="start" x="455.5" y="-118.8" font-family="arial" font-size="14.00">2x</text>
<polygon fill="none" stroke="black" points="481.5,-111 481.5,-134 555.5,-134 555.5,-111 481.5,-111"/>
<text text-anchor="start" x="492.5" y="-118.8" font-family="arial" font-size="14.00">1.5 mm²</text>
<polygon fill="none" stroke="black" points="555.5,-111 555.5,-134 611.5,-134 611.5,-111 555.5,-111"/>
<text text-anchor="start" x="566" y="-118.8" font-family="arial" font-size="14.00">1.5 m</text>
<text text-anchor="start" x="467" y="-97.8" font-family="arial" font-size="14.00"> </text>
<text text-anchor="start" x="455" y="-78.8" font-family="arial" font-size="14.00">X1:9</text>
<text text-anchor="start" x="500" y="-78.8" font-family="arial" font-size="14.00"> &#160;&#160;&#160;&#160;1:BN &#160;&#160;&#160;</text>
<text text-anchor="start" x="577" y="-78.8" font-family="arial" font-size="14.00">X2:3</text>
<polygon fill="#000000" stroke="transparent" points="444.5,-71 444.5,-73 611.5,-73 611.5,-71 444.5,-71"/>
<polygon fill="#895956" stroke="transparent" points="444.5,-69 444.5,-71 611.5,-71 611.5,-69 444.5,-69"/>
<polygon fill="#000000" stroke="transparent" points="444.5,-67 444.5,-69 611.5,-69 611.5,-67 444.5,-67"/>
<text text-anchor="start" x="451" y="-53.8" font-family="arial" font-size="14.00">X1:13</text>
<text text-anchor="start" x="500" y="-53.8" font-family="arial" font-size="14.00"> &#160;&#160;&#160;&#160;2:BU &#160;&#160;&#160;</text>
<text text-anchor="start" x="577" y="-53.8" font-family="arial" font-size="14.00">X2:1</text>
<polygon fill="#000000" stroke="transparent" points="444.5,-46 444.5,-48 611.5,-48 611.5,-46 444.5,-46"/>
<polygon fill="#0066ff" stroke="transparent" points="444.5,-44 444.5,-46 611.5,-46 611.5,-44 444.5,-44"/>
<polygon fill="#000000" stroke="transparent" points="444.5,-42 444.5,-44 611.5,-44 611.5,-42 444.5,-42"/>
<text text-anchor="start" x="467" y="-28.8" font-family="arial" font-size="14.00"> </text>
<polygon fill="none" stroke="black" points="444.5,0 444.5,-23 611.5,-23 611.5,0 444.5,0"/>
<text text-anchor="start" x="448.5" y="-7.8" font-family="arial" font-size="14.00">length needs to be verified</text>
</g>
<!-- X1&#45;&#45;C1 -->
<g id="edge1" class="edge">
<title>X1:e&#45;&#45;C1:w</title>
<path fill="none" stroke="#000000" stroke-width="2" d="M300,-67C364.13,-67 380.12,-68 444,-68"/>
<path fill="none" stroke="#895956" stroke-width="2" d="M300,-69C364,-69 380,-70 444,-70"/>
<path fill="none" stroke="#000000" stroke-width="2" d="M300,-71C363.88,-71 379.87,-72 444,-72"/>
</g>
<!-- X1&#45;&#45;C1 -->
<g id="edge3" class="edge">
<title>X1:e&#45;&#45;C1:w</title>
<path fill="none" stroke="#000000" stroke-width="2" d="M300,-44C363.88,-44 379.87,-43 444,-43"/>
<path fill="none" stroke="#0066ff" stroke-width="2" d="M300,-46C364,-46 380,-45 444,-45"/>
<path fill="none" stroke="#000000" stroke-width="2" d="M300,-48C364.13,-48 380.12,-47 444,-47"/>
</g>
<!-- X2 -->
<g id="node2" class="node">
<title>X2</title>
<polygon fill="#ffffff" stroke="black" points="879,-138 755,-138 755,0 879,0 879,-138"/>
<polygon fill="none" stroke="black" points="755,-115 755,-138 879,-138 879,-115 755,-115"/>
<text text-anchor="start" x="808.5" y="-122.8" font-family="arial" font-size="14.00">X2</text>
<polygon fill="none" stroke="black" points="755,-92 755,-115 790,-115 790,-92 755,-92"/>
<text text-anchor="start" x="759" y="-99.8" font-family="arial" font-size="14.00">XLR</text>
<polygon fill="none" stroke="black" points="790,-92 790,-115 840,-115 840,-92 790,-92"/>
<text text-anchor="start" x="794" y="-99.8" font-family="arial" font-size="14.00">female</text>
<polygon fill="none" stroke="black" points="840,-92 840,-115 879,-115 879,-92 840,-92"/>
<text text-anchor="start" x="844" y="-99.8" font-family="arial" font-size="14.00">3&#45;pin</text>
<polygon fill="none" stroke="black" points="755,-69 755,-92 879,-92 879,-69 755,-69"/>
<text text-anchor="start" x="813" y="-76.8" font-family="arial" font-size="14.00">1</text>
<polygon fill="none" stroke="black" points="755,-46 755,-69 879,-69 879,-46 755,-46"/>
<text text-anchor="start" x="813" y="-53.8" font-family="arial" font-size="14.00">2</text>
<polygon fill="none" stroke="black" points="755,-23 755,-46 879,-46 879,-23 755,-23"/>
<text text-anchor="start" x="813" y="-30.8" font-family="arial" font-size="14.00">3</text>
<polygon fill="none" stroke="black" points="755,0 755,-23 879,-23 879,0 755,0"/>
<text text-anchor="start" x="759" y="-7.8" font-family="arial" font-size="14.00">AC3F AMPHENOL</text>
</g>
<!-- C1&#45;&#45;X2 -->
<g id="edge2" class="edge">
<title>C1:e&#45;&#45;X2:w</title>
<path fill="none" stroke="#000000" stroke-width="2" d="M611,-68C675.07,-69.36 687.13,-33.36 755,-32"/>
<path fill="none" stroke="#895956" stroke-width="2" d="M611,-70C676.97,-70 689.03,-34 755,-34"/>
<path fill="none" stroke="#000000" stroke-width="2" d="M611,-72C678.87,-70.64 690.93,-34.64 755,-36"/>
</g>
<!-- C1&#45;&#45;X2 -->
<g id="edge4" class="edge">
<title>C1:e&#45;&#45;X2:w</title>
<path fill="none" stroke="#000000" stroke-width="2" d="M611,-43C678.87,-44.36 690.93,-80.36 755,-79"/>
<path fill="none" stroke="#0066ff" stroke-width="2" d="M611,-45C676.97,-45 689.03,-81 755,-81"/>
<path fill="none" stroke="#000000" stroke-width="2" d="M611,-47C675.07,-45.64 687.13,-81.64 755,-83"/>
</g>
</g>
</svg>
