<?xml version="1.0" encoding="UTF-8" standalone="no"?>
<!DOCTYPE svg PUBLIC "-//W3C//DTD SVG 1.1//EN"
 "http://www.w3.org/Graphics/SVG/1.1/DTD/svg11.dtd">
<!-- Generated by graphviz version 2.43.0 (0)
 -->
<!-- Title: %3 Pages: 1 -->
<svg width="860pt" height="165pt"
 viewBox="0.00 0.00 860.00 165.00" xmlns="http://www.w3.org/2000/svg" xmlns:xlink="http://www.w3.org/1999/xlink">
<g id="graph0" class="graph" transform="scale(1 1) rotate(0) translate(4 161)">
<title>%3</title>
<polygon fill="#ffffff" stroke="transparent" points="-4,4 -4,-161 856,-161 856,4 -4,4"/>
<!-- X1 -->
<g id="node1" class="node">
<title>X1</title>
<polygon fill="#ffffff" stroke="black" points="300,-127.5 0,-127.5 0,-12.5 300,-12.5 300,-127.5"/>
<polygon fill="none" stroke="black" points="0,-104 0,-127 300,-127 300,-104 0,-104"/>
<text text-anchor="start" x="141.5" y="-111.8" font-family="arial" font-size="14.00">X1</text>
<polygon fill="none" stroke="black" points="0,-81 0,-104 204,-104 204,-81 0,-81"/>
<text text-anchor="start" x="4" y="-88.8" font-family="arial" font-size="14.00">ISO 11446, W12&#45;T13&#45;61 TESAT</text>
<polygon fill="none" stroke="black" points="204,-81 204,-104 254,-104 254,-81 204,-81"/>
<text text-anchor="start" x="208" y="-88.8" font-family="arial" font-size="14.00">female</text>
<polygon fill="none" stroke="black" points="254,-81 254,-104 300,-104 300,-81 254,-81"/>
<text text-anchor="start" x="258" y="-88.8" font-family="arial" font-size="14.00">13&#45;pin</text>
<polygon fill="none" stroke="black" points="0,-58 0,-81 300,-81 300,-58 0,-58"/>
<text text-anchor="start" x="146" y="-65.8" font-family="arial" font-size="14.00">9</text>
<polygon fill="none" stroke="black" points="0,-35 0,-58 300,-58 300,-35 0,-35"/>
<text text-anchor="start" x="142" y="-42.8" font-family="arial" font-size="14.00">13</text>
<polygon fill="none" stroke="black" points="0,-12 0,-35 300,-35 300,-12 0,-12"/>
<text text-anchor="start" x="51.5" y="-19.8" font-family="arial" font-size="14.00">Unconnected pins are not shown</text>
</g>
<!-- C1 -->
<g id="node3" class="node">
<title>C1</title>
<polygon fill="#ffffff" stroke="black" points="584,-157 444,-157 444,-23 584,-23 584,-157"/>
<polygon fill="none" stroke="black" points="444,-134 444,-157 584,-157 584,-134 444,-134"/>
<text text-anchor="start" x="505" y="-141.8" font-family="arial" font-size="14.00">C1</text>
<polygon fill="none" stroke="black" points="444,-111 444,-134 472,-134 472,-111 444,-111"/>
<text text-anchor="start" x="450.5" y="-118.8" font-family="arial" font-size="14.00">2x</text>
<polygon fill="none" stroke="black" points="472,-111 472,-134 537,-134 537,-111 472,-111"/>
<text text-anchor="start" x="478.5" y="-118.8" font-family="arial" font-size="14.00">1.5 mm²</text>
<polygon fill="none" stroke="black" points="537,-111 537,-134 584,-134 584,-111 537,-111"/>
<text text-anchor="start" x="543" y="-118.8" font-family="arial" font-size="14.00">1.5 m</text>
<text text-anchor="start" x="462" y="-97.8" font-family="arial" font-size="14.00"> </text>
<text text-anchor="start" x="450" y="-78.8" font-family="arial" font-size="14.00">X1:9</text>
<text text-anchor="start" x="486" y="-78.8" font-family="arial" font-size="14.00"> &#160;&#160;&#160;&#160;1:BN &#160;&#160;&#160;</text>
<text text-anchor="start" x="554" y="-78.8" font-family="arial" font-size="14.00">X2:1</text>
<polygon fill="#000000" stroke="transparent" points="444,-71 444,-73 584,-73 584,-71 444,-71"/>
<polygon fill="#895956" stroke="transparent" points="444,-69 444,-71 584,-71 584,-69 444,-69"/>
<polygon fill="#000000" stroke="transparent" points="444,-67 444,-69 584,-69 584,-67 444,-67"/>
<text text-anchor="start" x="446" y="-53.8" font-family="arial" font-size="14.00">X1:13</text>
<text text-anchor="start" x="486" y="-53.8" font-family="arial" font-size="14.00"> &#160;&#160;&#160;&#160;2:BU &#160;&#160;&#160;</text>
<text text-anchor="start" x="554" y="-53.8" font-family="arial" font-size="14.00">X2:3</text>
<polygon fill="#000000" stroke="transparent" points="444,-46 444,-48 584,-48 584,-46 444,-46"/>
<polygon fill="#0066ff" stroke="transparent" points="444,-44 444,-46 584,-46 584,-44 444,-44"/>
<polygon fill="#000000" stroke="transparent" points="444,-42 444,-44 584,-44 584,-42 444,-42"/>
<text text-anchor="start" x="462" y="-28.8" font-family="arial" font-size="14.00"> </text>
</g>
<!-- X1&#45;&#45;C1 -->
<g id="edge1" class="edge">
<title>X1:e&#45;&#45;C1:w</title>
<path fill="none" stroke="#000000" stroke-width="2" d="M300,-67C364.13,-67 380.12,-68 444,-68"/>
<path fill="none" stroke="#895956" stroke-width="2" d="M300,-69C364,-69 380,-70 444,-70"/>
<path fill="none" stroke="#000000" stroke-width="2" d="M300,-71C363.88,-71 379.87,-72 444,-72"/>
</g>
<!-- X1&#45;&#45;C1 -->
<g id="edge3" class="edge">
<title>X1:e&#45;&#45;C1:w</title>
<path fill="none" stroke="#000000" stroke-width="2" d="M300,-44C363.88,-44 379.87,-43 444,-43"/>
<path fill="none" stroke="#0066ff" stroke-width="2" d="M300,-46C364,-46 380,-45 444,-45"/>
<path fill="none" stroke="#000000" stroke-width="2" d="M300,-48C364.13,-48 380.12,-47 444,-47"/>
</g>
<!-- X2 -->
<g id="node2" class="node">
<title>X2</title>
<polygon fill="#ffffff" stroke="black" points="852,-138 728,-138 728,0 852,0 852,-138"/>
<polygon fill="none" stroke="black" points="728,-115 728,-138 852,-138 852,-115 728,-115"/>
<text text-anchor="start" x="781.5" y="-122.8" font-family="arial" font-size="14.00">X2</text>
<polygon fill="none" stroke="black" points="728,-92 728,-115 763,-115 763,-92 728,-92"/>
<text text-anchor="start" x="732" y="-99.8" font-family="arial" font-size="14.00">XLR</text>
<polygon fill="none" stroke="black" points="763,-92 763,-115 813,-115 813,-92 763,-92"/>
<text text-anchor="start" x="767" y="-99.8" font-family="arial" font-size="14.00">female</text>
<polygon fill="none" stroke="black" points="813,-92 813,-115 852,-115 852,-92 813,-92"/>
<text text-anchor="start" x="817" y="-99.8" font-family="arial" font-size="14.00">3&#45;pin</text>
<polygon fill="none" stroke="black" points="728,-69 728,-92 852,-92 852,-69 728,-69"/>
<text text-anchor="start" x="786" y="-76.8" font-family="arial" font-size="14.00">1</text>
<polygon fill="none" stroke="black" points="728,-46 728,-69 852,-69 852,-46 728,-46"/>
<text text-anchor="start" x="786" y="-53.8" font-family="arial" font-size="14.00">2</text>
<polygon fill="none" stroke="black" points="728,-23 728,-46 852,-46 852,-23 728,-23"/>
<text text-anchor="start" x="786" y="-30.8" font-family="arial" font-size="14.00">3</text>
<polygon fill="none" stroke="black" points="728,0 728,-23 852,-23 852,0 728,0"/>
<text text-anchor="start" x="732" y="-7.8" font-family="arial" font-size="14.00">AC3F AMPHENOL</text>
</g>
<!-- C1&#45;&#45;X2 -->
<g id="edge2" class="edge">
<title>C1:e&#45;&#45;X2:w</title>
<path fill="none" stroke="#000000" stroke-width="2" d="M584,-68C649.34,-68.36 664.96,-79.36 728,-79"/>
<path fill="none" stroke="#895956" stroke-width="2" d="M584,-70C648.19,-70 663.81,-81 728,-81"/>
<path fill="none" stroke="#000000" stroke-width="2" d="M584,-72C647.04,-71.64 662.66,-82.64 728,-83"/>
</g>
<!-- C1&#45;&#45;X2 -->
<g id="edge4" class="edge">
<title>C1:e&#45;&#45;X2:w</title>
<path fill="none" stroke="#000000" stroke-width="2" d="M584,-43C647.04,-43.36 662.66,-32.36 728,-32"/>
<path fill="none" stroke="#0066ff" stroke-width="2" d="M584,-45C648.19,-45 663.81,-34 728,-34"/>
<path fill="none" stroke="#000000" stroke-width="2" d="M584,-47C649.34,-46.64 664.96,-35.64 728,-36"/>
</g>
</g>
</svg>
