<?xml version="1.0" encoding="UTF-8" standalone="no"?>
<!DOCTYPE svg PUBLIC "-//W3C//DTD SVG 1.1//EN"
 "http://www.w3.org/Graphics/SVG/1.1/DTD/svg11.dtd">
<!-- Generated by graphviz version 2.43.0 (0)
 -->
<!-- Title: %3 Pages: 1 -->
<svg width="890pt" height="514pt"
 viewBox="0.00 0.00 890.00 514.00" xmlns="http://www.w3.org/2000/svg" xmlns:xlink="http://www.w3.org/1999/xlink">
<g id="graph0" class="graph" transform="scale(1 1) rotate(0) translate(4 510)">
<title>%3</title>
<polygon fill="#ffffff" stroke="transparent" points="-4,4 -4,-510 886,-510 886,4 -4,4"/>
<!-- O -->
<g id="node1" class="node">
<title>O</title>
<polygon fill="#ffffff" stroke="black" points="174,-506 0,-506 0,0 174,0 174,-506"/>
<polygon fill="none" stroke="black" points="0,-483 0,-506 174,-506 174,-483 0,-483"/>
<text text-anchor="start" x="81" y="-490.8" font-family="arial" font-size="14.00">O</text>
<polygon fill="none" stroke="black" points="0,-460 0,-483 84,-483 84,-460 0,-460"/>
<text text-anchor="start" x="4" y="-467.8" font-family="arial" font-size="14.00">Turris omnia</text>
<polygon fill="none" stroke="black" points="84,-460 84,-483 128,-483 128,-460 84,-460"/>
<text text-anchor="start" x="88" y="-467.8" font-family="arial" font-size="14.00">GPIO</text>
<polygon fill="none" stroke="black" points="128,-460 128,-483 174,-483 174,-460 128,-460"/>
<text text-anchor="start" x="132" y="-467.8" font-family="arial" font-size="14.00">20&#45;pin</text>
<polygon fill="none" stroke="black" points="0,-437 0,-460 119,-460 119,-437 0,-437"/>
<text text-anchor="start" x="44.5" y="-444.8" font-family="arial" font-size="14.00">SPI0</text>
<polygon fill="none" stroke="black" points="119,-437 119,-460 174,-460 174,-437 119,-437"/>
<text text-anchor="start" x="142.5" y="-444.8" font-family="arial" font-size="14.00">1</text>
<polygon fill="none" stroke="black" points="0,-414 0,-437 119,-437 119,-414 0,-414"/>
<text text-anchor="start" x="27" y="-421.8" font-family="arial" font-size="14.00">SPI0_SCK</text>
<polygon fill="none" stroke="black" points="119,-414 119,-437 174,-437 174,-414 119,-414"/>
<text text-anchor="start" x="142.5" y="-421.8" font-family="arial" font-size="14.00">2</text>
<polygon fill="none" stroke="black" points="0,-391 0,-414 119,-414 119,-391 0,-391"/>
<text text-anchor="start" x="23" y="-398.8" font-family="arial" font-size="14.00">SPI0_MOSI</text>
<polygon fill="none" stroke="black" points="119,-391 119,-414 174,-414 174,-391 119,-391"/>
<text text-anchor="start" x="142.5" y="-398.8" font-family="arial" font-size="14.00">3</text>
<polygon fill="none" stroke="black" points="0,-368 0,-391 119,-391 119,-368 0,-368"/>
<text text-anchor="start" x="23" y="-375.8" font-family="arial" font-size="14.00">SPI0_MISO</text>
<polygon fill="none" stroke="black" points="119,-368 119,-391 174,-391 174,-368 119,-368"/>
<text text-anchor="start" x="142.5" y="-375.8" font-family="arial" font-size="14.00">4</text>
<polygon fill="none" stroke="black" points="0,-345 0,-368 119,-368 119,-345 0,-345"/>
<text text-anchor="start" x="20" y="-352.8" font-family="arial" font-size="14.00">UART1_RxD</text>
<polygon fill="none" stroke="black" points="119,-345 119,-368 174,-368 174,-345 119,-345"/>
<text text-anchor="start" x="142.5" y="-352.8" font-family="arial" font-size="14.00">5</text>
<polygon fill="none" stroke="black" points="0,-322 0,-345 119,-345 119,-322 0,-322"/>
<text text-anchor="start" x="21" y="-329.8" font-family="arial" font-size="14.00">UART1_TxD</text>
<polygon fill="none" stroke="black" points="119,-322 119,-345 174,-345 174,-322 119,-322"/>
<text text-anchor="start" x="142.5" y="-329.8" font-family="arial" font-size="14.00">6</text>
<polygon fill="none" stroke="black" points="0,-299 0,-322 119,-322 119,-299 0,-299"/>
<text text-anchor="start" x="27.5" y="-306.8" font-family="arial" font-size="14.00">I2C6_SDA</text>
<polygon fill="none" stroke="black" points="119,-299 119,-322 174,-322 174,-299 119,-299"/>
<text text-anchor="start" x="142.5" y="-306.8" font-family="arial" font-size="14.00">7</text>
<polygon fill="none" stroke="black" points="0,-276 0,-299 119,-299 119,-276 0,-276"/>
<text text-anchor="start" x="28" y="-283.8" font-family="arial" font-size="14.00">I2C6_SCL</text>
<polygon fill="none" stroke="black" points="119,-276 119,-299 174,-299 174,-276 119,-276"/>
<text text-anchor="start" x="142.5" y="-283.8" font-family="arial" font-size="14.00">8</text>
<polygon fill="none" stroke="black" points="0,-253 0,-276 119,-276 119,-253 0,-253"/>
<text text-anchor="start" x="48.5" y="-260.8" font-family="arial" font-size="14.00">3v3</text>
<polygon fill="none" stroke="black" points="119,-253 119,-276 174,-276 174,-253 119,-253"/>
<text text-anchor="start" x="142.5" y="-260.8" font-family="arial" font-size="14.00">9</text>
<polygon fill="none" stroke="black" points="0,-230 0,-253 119,-253 119,-230 0,-230"/>
<text text-anchor="start" x="44" y="-237.8" font-family="arial" font-size="14.00">GND</text>
<polygon fill="none" stroke="black" points="119,-230 119,-253 174,-253 174,-230 119,-230"/>
<text text-anchor="start" x="138.5" y="-237.8" font-family="arial" font-size="14.00">10</text>
<polygon fill="none" stroke="black" points="0,-207 0,-230 119,-230 119,-207 0,-207"/>
<text text-anchor="start" x="34" y="-214.8" font-family="arial" font-size="14.00">GPIO18</text>
<polygon fill="none" stroke="black" points="119,-207 119,-230 174,-230 174,-207 119,-207"/>
<text text-anchor="start" x="139" y="-214.8" font-family="arial" font-size="14.00">11</text>
<polygon fill="none" stroke="black" points="0,-184 0,-207 119,-207 119,-184 0,-184"/>
<text text-anchor="start" x="34" y="-191.8" font-family="arial" font-size="14.00">GPIO33</text>
<polygon fill="none" stroke="black" points="119,-184 119,-207 174,-207 174,-184 119,-184"/>
<text text-anchor="start" x="138.5" y="-191.8" font-family="arial" font-size="14.00">12</text>
<polygon fill="none" stroke="black" points="0,-161 0,-184 119,-184 119,-161 0,-161"/>
<text text-anchor="start" x="34" y="-168.8" font-family="arial" font-size="14.00">GPIO34</text>
<polygon fill="none" stroke="black" points="119,-161 119,-184 174,-184 174,-161 119,-161"/>
<text text-anchor="start" x="138.5" y="-168.8" font-family="arial" font-size="14.00">13</text>
<polygon fill="none" stroke="black" points="0,-138 0,-161 119,-161 119,-138 0,-138"/>
<text text-anchor="start" x="34" y="-145.8" font-family="arial" font-size="14.00">GPIO35</text>
<polygon fill="none" stroke="black" points="119,-138 119,-161 174,-161 174,-138 119,-138"/>
<text text-anchor="start" x="138.5" y="-145.8" font-family="arial" font-size="14.00">14</text>
<polygon fill="none" stroke="black" points="0,-115 0,-138 119,-138 119,-115 0,-115"/>
<text text-anchor="start" x="34" y="-122.8" font-family="arial" font-size="14.00">GPIO36</text>
<polygon fill="none" stroke="black" points="119,-115 119,-138 174,-138 174,-115 119,-115"/>
<text text-anchor="start" x="138.5" y="-122.8" font-family="arial" font-size="14.00">15</text>
<polygon fill="none" stroke="black" points="0,-92 0,-115 119,-115 119,-92 0,-92"/>
<text text-anchor="start" x="34" y="-99.8" font-family="arial" font-size="14.00">GPIO42</text>
<polygon fill="none" stroke="black" points="119,-92 119,-115 174,-115 174,-92 119,-92"/>
<text text-anchor="start" x="138.5" y="-99.8" font-family="arial" font-size="14.00">16</text>
<polygon fill="none" stroke="black" points="0,-69 0,-92 119,-92 119,-69 0,-69"/>
<text text-anchor="start" x="34" y="-76.8" font-family="arial" font-size="14.00">GPIO44</text>
<polygon fill="none" stroke="black" points="119,-69 119,-92 174,-92 174,-69 119,-69"/>
<text text-anchor="start" x="138.5" y="-76.8" font-family="arial" font-size="14.00">17</text>
<polygon fill="none" stroke="black" points="0,-46 0,-69 119,-69 119,-46 0,-46"/>
<text text-anchor="start" x="34" y="-53.8" font-family="arial" font-size="14.00">GPIO47</text>
<polygon fill="none" stroke="black" points="119,-46 119,-69 174,-69 174,-46 119,-46"/>
<text text-anchor="start" x="138.5" y="-53.8" font-family="arial" font-size="14.00">18</text>
<polygon fill="none" stroke="black" points="0,-23 0,-46 119,-46 119,-23 0,-23"/>
<text text-anchor="start" x="34" y="-30.8" font-family="arial" font-size="14.00">GPIO51</text>
<polygon fill="none" stroke="black" points="119,-23 119,-46 174,-46 174,-23 119,-23"/>
<text text-anchor="start" x="138.5" y="-30.8" font-family="arial" font-size="14.00">19</text>
<polygon fill="none" stroke="black" points="0,0 0,-23 119,-23 119,0 0,0"/>
<text text-anchor="start" x="34" y="-7.8" font-family="arial" font-size="14.00">GPIO56</text>
<polygon fill="none" stroke="black" points="119,0 119,-23 174,-23 174,0 119,0"/>
<text text-anchor="start" x="138.5" y="-7.8" font-family="arial" font-size="14.00">20</text>
</g>
<!-- MW_1 -->
<g id="node4" class="node">
<title>MW_1</title>
<polygon fill="#ffffff" stroke="transparent" points="276,-300.5 246,-300.5 246,-235.5 276,-235.5 276,-300.5"/>
<text text-anchor="start" x="252.19" y="-297.1" font-family="arial" font-size="1.00" fill="white"> </text>
<text text-anchor="start" x="248" y="-292.2" font-family="arial" font-size="1.00" fill="white">O:5:UART1_RxD</text>
<text text-anchor="start" x="261" y="-292.2" font-family="arial" font-size="1.00" fill="white"> &#160;&#160;&#160;&#160;1:GY &#160;&#160;&#160;</text>
<text text-anchor="start" x="268" y="-292.2" font-family="arial" font-size="1.00" fill="white">GPS:4:TxD</text>
<polygon fill="#000000" stroke="transparent" points="246,-288 246,-290 276,-290 276,-288 246,-288"/>
<polygon fill="#999999" stroke="transparent" points="246,-286 246,-288 276,-288 276,-286 246,-286"/>
<polygon fill="#000000" stroke="transparent" points="246,-284 246,-286 276,-286 276,-284 246,-284"/>
<text text-anchor="start" x="248" y="-281.2" font-family="arial" font-size="1.00" fill="white">O:6:UART1_TxD</text>
<text text-anchor="start" x="261" y="-281.2" font-family="arial" font-size="1.00" fill="white"> &#160;&#160;&#160;&#160;2:BN &#160;&#160;&#160;</text>
<text text-anchor="start" x="268" y="-281.2" font-family="arial" font-size="1.00" fill="white">GPS:5:RxD</text>
<polygon fill="#000000" stroke="transparent" points="246,-277 246,-279 276,-279 276,-277 246,-277"/>
<polygon fill="#895956" stroke="transparent" points="246,-275 246,-277 276,-277 276,-275 246,-275"/>
<polygon fill="#000000" stroke="transparent" points="246,-273 246,-275 276,-275 276,-273 246,-273"/>
<text text-anchor="start" x="250.5" y="-270.2" font-family="arial" font-size="1.00" fill="white">O:9:3v3</text>
<text text-anchor="start" x="261" y="-270.2" font-family="arial" font-size="1.00" fill="white"> &#160;&#160;&#160;&#160;3:OG &#160;&#160;&#160;</text>
<text text-anchor="start" x="268" y="-270.2" font-family="arial" font-size="1.00" fill="white">GPS:2:3v3</text>
<polygon fill="#000000" stroke="transparent" points="246,-266 246,-268 276,-268 276,-266 246,-266"/>
<polygon fill="#ff8000" stroke="transparent" points="246,-264 246,-266 276,-266 276,-264 246,-264"/>
<polygon fill="#000000" stroke="transparent" points="246,-262 246,-264 276,-264 276,-262 246,-262"/>
<text text-anchor="start" x="250" y="-259.2" font-family="arial" font-size="1.00" fill="white">O:10:GND</text>
<text text-anchor="start" x="261" y="-259.2" font-family="arial" font-size="1.00" fill="white"> &#160;&#160;&#160;&#160;4:BK &#160;&#160;&#160;</text>
<text text-anchor="start" x="268" y="-259.2" font-family="arial" font-size="1.00" fill="white">GPS:1:GND</text>
<polygon fill="#000000" stroke="transparent" points="246,-255 246,-257 276,-257 276,-255 246,-255"/>
<polygon fill="#000000" stroke="transparent" points="246,-253 246,-255 276,-255 276,-253 246,-253"/>
<polygon fill="#000000" stroke="transparent" points="246,-251 246,-253 276,-253 276,-251 246,-251"/>
<text text-anchor="start" x="249" y="-248.2" font-family="arial" font-size="1.00" fill="white">O:11:GPIO18</text>
<text text-anchor="start" x="261" y="-248.2" font-family="arial" font-size="1.00" fill="white"> &#160;&#160;&#160;&#160;5:WH &#160;&#160;&#160;</text>
<text text-anchor="start" x="268" y="-248.2" font-family="arial" font-size="1.00" fill="white">GPS:3:TPL</text>
<polygon fill="#000000" stroke="transparent" points="246,-244 246,-246 276,-246 276,-244 246,-244"/>
<polygon fill="#ffffff" stroke="transparent" points="246,-242 246,-244 276,-244 276,-242 246,-242"/>
<polygon fill="#000000" stroke="transparent" points="246,-240 246,-242 276,-242 276,-240 246,-240"/>
<text text-anchor="start" x="252.19" y="-237.1" font-family="arial" font-size="1.00" fill="white"> </text>
</g>
<!-- O&#45;&#45;MW_1 -->
<g id="edge1" class="edge">
<title>O:e&#45;&#45;MW_1:w</title>
<path fill="none" stroke="#000000" stroke-width="2" d="M174,-355C216.69,-357.48 199.43,-287.48 246,-285"/>
<path fill="none" stroke="#999999" stroke-width="2" d="M174,-357C218.63,-357 201.37,-287 246,-287"/>
<path fill="none" stroke="#000000" stroke-width="2" d="M174,-359C220.57,-356.52 203.31,-286.52 246,-289"/>
</g>
<!-- O&#45;&#45;MW_1 -->
<g id="edge3" class="edge">
<title>O:e&#45;&#45;MW_1:w</title>
<path fill="none" stroke="#000000" stroke-width="2" d="M174,-332C213.12,-334.35 202.94,-276.35 246,-274"/>
<path fill="none" stroke="#895956" stroke-width="2" d="M174,-334C215.09,-334 204.91,-276 246,-276"/>
<path fill="none" stroke="#000000" stroke-width="2" d="M174,-336C217.06,-333.65 206.88,-275.65 246,-278"/>
</g>
<!-- O&#45;&#45;MW_1 -->
<g id="edge5" class="edge">
<title>O:e&#45;&#45;MW_1:w</title>
<path fill="none" stroke="#000000" stroke-width="2" d="M174,-263C206,-263 214,-263 246,-263"/>
<path fill="none" stroke="#ff8000" stroke-width="2" d="M174,-265C206,-265 214,-265 246,-265"/>
<path fill="none" stroke="#000000" stroke-width="2" d="M174,-267C206,-267 214,-267 246,-267"/>
</g>
<!-- O&#45;&#45;MW_1 -->
<g id="edge7" class="edge">
<title>O:e&#45;&#45;MW_1:w</title>
<path fill="none" stroke="#000000" stroke-width="2" d="M174,-239C208.28,-240.06 215.25,-253.06 246,-252"/>
<path fill="none" stroke="#000000" stroke-width="2" d="M174,-241C206.52,-241 213.48,-254 246,-254"/>
<path fill="none" stroke="#000000" stroke-width="2" d="M174,-243C204.75,-241.94 211.72,-254.94 246,-256"/>
</g>
<!-- O&#45;&#45;MW_1 -->
<g id="edge9" class="edge">
<title>O:e&#45;&#45;MW_1:w</title>
<path fill="none" stroke="#000000" stroke-width="2" d="M174,-216C209.85,-217.66 214.1,-242.66 246,-241"/>
<path fill="none" stroke="#ffffff" stroke-width="2" d="M174,-218C207.87,-218 212.13,-243 246,-243"/>
<path fill="none" stroke="#000000" stroke-width="2" d="M174,-220C205.9,-218.34 210.15,-243.34 246,-245"/>
</g>
<!-- GPS -->
<g id="node2" class="node">
<title>GPS</title>
<polygon fill="#ffffff" stroke="black" points="505,-347.5 348,-347.5 348,-186.5 505,-186.5 505,-347.5"/>
<polygon fill="none" stroke="black" points="348.5,-324 348.5,-347 505.5,-347 505.5,-324 348.5,-324"/>
<text text-anchor="start" x="412" y="-331.8" font-family="arial" font-size="14.00">GPS</text>
<polygon fill="none" stroke="black" points="348.5,-301 348.5,-324 451.5,-324 451.5,-301 348.5,-301"/>
<text text-anchor="start" x="352.5" y="-308.8" font-family="arial" font-size="14.00">MLAB GPS02B</text>
<polygon fill="none" stroke="black" points="451.5,-301 451.5,-324 466.5,-324 466.5,-301 451.5,-301"/>
<text text-anchor="start" x="455.5" y="-308.8" font-family="arial" font-size="14.00">x</text>
<polygon fill="none" stroke="black" points="466.5,-301 466.5,-324 505.5,-324 505.5,-301 466.5,-301"/>
<text text-anchor="start" x="470.5" y="-308.8" font-family="arial" font-size="14.00">5&#45;pin</text>
<polygon fill="none" stroke="black" points="348.5,-278 348.5,-301 393.5,-301 393.5,-278 348.5,-278"/>
<text text-anchor="start" x="367" y="-285.8" font-family="arial" font-size="14.00">1</text>
<polygon fill="none" stroke="black" points="393.5,-278 393.5,-301 461.5,-301 461.5,-278 393.5,-278"/>
<text text-anchor="start" x="412" y="-285.8" font-family="arial" font-size="14.00">GND</text>
<polygon fill="none" stroke="black" points="461.5,-278 461.5,-301 505.5,-301 505.5,-278 461.5,-278"/>
<text text-anchor="start" x="479.5" y="-285.8" font-family="arial" font-size="14.00">1</text>
<polygon fill="none" stroke="black" points="348.5,-255 348.5,-278 393.5,-278 393.5,-255 348.5,-255"/>
<text text-anchor="start" x="367" y="-262.8" font-family="arial" font-size="14.00">2</text>
<polygon fill="none" stroke="black" points="393.5,-255 393.5,-278 461.5,-278 461.5,-255 393.5,-255"/>
<text text-anchor="start" x="416.5" y="-262.8" font-family="arial" font-size="14.00">3v3</text>
<polygon fill="none" stroke="black" points="461.5,-255 461.5,-278 505.5,-278 505.5,-255 461.5,-255"/>
<text text-anchor="start" x="479.5" y="-262.8" font-family="arial" font-size="14.00">2</text>
<polygon fill="none" stroke="black" points="348.5,-232 348.5,-255 393.5,-255 393.5,-232 348.5,-232"/>
<text text-anchor="start" x="367" y="-239.8" font-family="arial" font-size="14.00">3</text>
<polygon fill="none" stroke="black" points="393.5,-232 393.5,-255 461.5,-255 461.5,-232 393.5,-232"/>
<text text-anchor="start" x="415" y="-239.8" font-family="arial" font-size="14.00">TPL</text>
<polygon fill="none" stroke="black" points="461.5,-232 461.5,-255 505.5,-255 505.5,-232 461.5,-232"/>
<text text-anchor="start" x="479.5" y="-239.8" font-family="arial" font-size="14.00">3</text>
<polygon fill="none" stroke="black" points="348.5,-209 348.5,-232 393.5,-232 393.5,-209 348.5,-209"/>
<text text-anchor="start" x="367" y="-216.8" font-family="arial" font-size="14.00">4</text>
<polygon fill="none" stroke="black" points="393.5,-209 393.5,-232 461.5,-232 461.5,-209 393.5,-209"/>
<text text-anchor="start" x="415" y="-216.8" font-family="arial" font-size="14.00">TxD</text>
<polygon fill="none" stroke="black" points="461.5,-209 461.5,-232 505.5,-232 505.5,-209 461.5,-209"/>
<text text-anchor="start" x="479.5" y="-216.8" font-family="arial" font-size="14.00">4</text>
<polygon fill="none" stroke="black" points="348.5,-186 348.5,-209 393.5,-209 393.5,-186 348.5,-186"/>
<text text-anchor="start" x="367" y="-193.8" font-family="arial" font-size="14.00">5</text>
<polygon fill="none" stroke="black" points="393.5,-186 393.5,-209 461.5,-209 461.5,-186 393.5,-186"/>
<text text-anchor="start" x="414" y="-193.8" font-family="arial" font-size="14.00">RxD</text>
<polygon fill="none" stroke="black" points="461.5,-186 461.5,-209 505.5,-209 505.5,-186 461.5,-186"/>
<text text-anchor="start" x="479.5" y="-193.8" font-family="arial" font-size="14.00">5</text>
</g>
<!-- MW_2 -->
<g id="node5" class="node">
<title>MW_2</title>
<polygon fill="#ffffff" stroke="transparent" points="605,-285 577,-285 577,-253 605,-253 605,-285"/>
<text text-anchor="start" x="581.69" y="-282.1" font-family="arial" font-size="1.00" fill="white"> </text>
<text text-anchor="start" x="579" y="-277.2" font-family="arial" font-size="1.00" fill="white">GPS:1:GND</text>
<text text-anchor="start" x="589" y="-277.2" font-family="arial" font-size="1.00" fill="white"> &#160;&#160;&#160;&#160;1:BK &#160;&#160;&#160;</text>
<text text-anchor="start" x="596" y="-277.2" font-family="arial" font-size="1.00" fill="white">RSMS:1:GND</text>
<polygon fill="#000000" stroke="transparent" points="577,-273 577,-275 605,-275 605,-273 577,-273"/>
<polygon fill="#000000" stroke="transparent" points="577,-271 577,-273 605,-273 605,-271 577,-271"/>
<polygon fill="#000000" stroke="transparent" points="577,-269 577,-271 605,-271 605,-269 577,-269"/>
<text text-anchor="start" x="579" y="-266.2" font-family="arial" font-size="1.00" fill="white">GPS:3:TPL</text>
<text text-anchor="start" x="589" y="-266.2" font-family="arial" font-size="1.00" fill="white"> &#160;&#160;&#160;&#160;2:PK &#160;&#160;&#160;</text>
<text text-anchor="start" x="596" y="-266.2" font-family="arial" font-size="1.00" fill="white">RSMS:2:TTL0</text>
<polygon fill="#000000" stroke="transparent" points="577,-262 577,-264 605,-264 605,-262 577,-262"/>
<polygon fill="#ff66cc" stroke="transparent" points="577,-260 577,-262 605,-262 605,-260 577,-260"/>
<polygon fill="#000000" stroke="transparent" points="577,-258 577,-260 605,-260 605,-258 577,-258"/>
<text text-anchor="start" x="581.69" y="-255.1" font-family="arial" font-size="1.00" fill="white"> </text>
</g>
<!-- GPS&#45;&#45;MW_2 -->
<g id="edge11" class="edge">
<title>GPS:e&#45;&#45;MW_2:w</title>
<path fill="none" stroke="#000000" stroke-width="2" d="M505,-288C536.09,-289.36 542.12,-271.36 577,-270"/>
<path fill="none" stroke="#000000" stroke-width="2" d="M505,-290C537.98,-290 544.02,-272 577,-272"/>
<path fill="none" stroke="#000000" stroke-width="2" d="M505,-292C539.88,-290.64 545.91,-272.64 577,-274"/>
</g>
<!-- GPS&#45;&#45;MW_2 -->
<g id="edge13" class="edge">
<title>GPS:e&#45;&#45;MW_2:w</title>
<path fill="none" stroke="#000000" stroke-width="2" d="M505,-241C539.88,-242.36 545.91,-260.36 577,-259"/>
<path fill="none" stroke="#ff66cc" stroke-width="2" d="M505,-243C537.98,-243 544.02,-261 577,-261"/>
<path fill="none" stroke="#000000" stroke-width="2" d="M505,-245C536.09,-243.64 542.12,-261.64 577,-263"/>
</g>
<!-- RSMS -->
<g id="node3" class="node">
<title>RSMS</title>
<polygon fill="#ffffff" stroke="black" points="882,-336 677,-336 677,-198 882,-198 882,-336"/>
<polygon fill="none" stroke="black" points="677.5,-313 677.5,-336 882.5,-336 882.5,-313 677.5,-313"/>
<text text-anchor="start" x="760" y="-320.8" font-family="arial" font-size="14.00">RSMS</text>
<polygon fill="none" stroke="black" points="677.5,-290 677.5,-313 771.5,-313 771.5,-290 677.5,-290"/>
<text text-anchor="start" x="681.5" y="-297.8" font-family="arial" font-size="14.00">UST RSMS02</text>
<polygon fill="none" stroke="black" points="771.5,-290 771.5,-313 843.5,-313 843.5,-290 771.5,-290"/>
<text text-anchor="start" x="775.5" y="-297.8" font-family="arial" font-size="14.00">TTL&#45;LVDS</text>
<polygon fill="none" stroke="black" points="843.5,-290 843.5,-313 882.5,-313 882.5,-290 843.5,-290"/>
<text text-anchor="start" x="847.5" y="-297.8" font-family="arial" font-size="14.00">4&#45;pin</text>
<polygon fill="none" stroke="black" points="677.5,-267 677.5,-290 768.5,-290 768.5,-267 677.5,-267"/>
<text text-anchor="start" x="719" y="-274.8" font-family="arial" font-size="14.00">1</text>
<polygon fill="none" stroke="black" points="768.5,-267 768.5,-290 882.5,-290 882.5,-267 768.5,-267"/>
<text text-anchor="start" x="810" y="-274.8" font-family="arial" font-size="14.00">GND</text>
<polygon fill="none" stroke="black" points="677.5,-244 677.5,-267 768.5,-267 768.5,-244 677.5,-244"/>
<text text-anchor="start" x="719" y="-251.8" font-family="arial" font-size="14.00">2</text>
<polygon fill="none" stroke="black" points="768.5,-244 768.5,-267 882.5,-267 882.5,-244 768.5,-244"/>
<text text-anchor="start" x="809.5" y="-251.8" font-family="arial" font-size="14.00">TTL0</text>
<polygon fill="none" stroke="black" points="677.5,-221 677.5,-244 768.5,-244 768.5,-221 677.5,-221"/>
<text text-anchor="start" x="719" y="-228.8" font-family="arial" font-size="14.00">3</text>
<polygon fill="none" stroke="black" points="768.5,-221 768.5,-244 882.5,-244 882.5,-221 768.5,-221"/>
<text text-anchor="start" x="809.5" y="-228.8" font-family="arial" font-size="14.00">TTL1</text>
<polygon fill="none" stroke="black" points="677.5,-198 677.5,-221 768.5,-221 768.5,-198 677.5,-198"/>
<text text-anchor="start" x="719" y="-205.8" font-family="arial" font-size="14.00">4</text>
<polygon fill="none" stroke="black" points="768.5,-198 768.5,-221 882.5,-221 882.5,-198 768.5,-198"/>
<text text-anchor="start" x="810" y="-205.8" font-family="arial" font-size="14.00">GND</text>
</g>
<!-- MW_1&#45;&#45;GPS -->
<g id="edge2" class="edge">
<title>MW_1:e&#45;&#45;GPS:w</title>
<path fill="none" stroke="#000000" stroke-width="2" d="M276,-285C317.76,-287.45 302.34,-220.45 348,-218"/>
<path fill="none" stroke="#999999" stroke-width="2" d="M276,-287C319.71,-287 304.29,-220 348,-220"/>
<path fill="none" stroke="#000000" stroke-width="2" d="M276,-289C321.66,-286.55 306.24,-219.55 348,-222"/>
</g>
<!-- MW_1&#45;&#45;GPS -->
<g id="edge4" class="edge">
<title>MW_1:e&#45;&#45;GPS:w</title>
<path fill="none" stroke="#000000" stroke-width="2" d="M276,-274C321.59,-276.56 298.57,-197.56 348,-195"/>
<path fill="none" stroke="#895956" stroke-width="2" d="M276,-276C323.51,-276 300.49,-197 348,-197"/>
<path fill="none" stroke="#000000" stroke-width="2" d="M276,-278C325.43,-275.44 302.41,-196.44 348,-199"/>
</g>
<!-- MW_1&#45;&#45;GPS -->
<g id="edge6" class="edge">
<title>MW_1:e&#45;&#45;GPS:w</title>
<path fill="none" stroke="#000000" stroke-width="2" d="M276,-263C308.25,-263.02 316.25,-264.02 348,-264"/>
<path fill="none" stroke="#ff8000" stroke-width="2" d="M276,-265C308,-265 316,-266 348,-266"/>
<path fill="none" stroke="#000000" stroke-width="2" d="M276,-267C307.75,-266.98 315.75,-267.98 348,-268"/>
</g>
<!-- MW_1&#45;&#45;GPS -->
<g id="edge8" class="edge">
<title>MW_1:e&#45;&#45;GPS:w</title>
<path fill="none" stroke="#000000" stroke-width="2" d="M276,-252C313.78,-253.98 314.22,-289.98 348,-288"/>
<path fill="none" stroke="#000000" stroke-width="2" d="M276,-254C311.78,-254 312.22,-290 348,-290"/>
<path fill="none" stroke="#000000" stroke-width="2" d="M276,-256C309.78,-254.02 310.22,-290.02 348,-292"/>
</g>
<!-- MW_1&#45;&#45;GPS -->
<g id="edge10" class="edge">
<title>MW_1:e&#45;&#45;GPS:w</title>
<path fill="none" stroke="#000000" stroke-width="2" d="M276,-241C308,-241 316,-241 348,-241"/>
<path fill="none" stroke="#ffffff" stroke-width="2" d="M276,-243C308,-243 316,-243 348,-243"/>
<path fill="none" stroke="#000000" stroke-width="2" d="M276,-245C308,-245 316,-245 348,-245"/>
</g>
<!-- MW_2&#45;&#45;RSMS -->
<g id="edge12" class="edge">
<title>MW_2:e&#45;&#45;RSMS:w</title>
<path fill="none" stroke="#000000" stroke-width="2" d="M605,-270C638.5,-270.52 646.19,-277.52 677,-277"/>
<path fill="none" stroke="#000000" stroke-width="2" d="M605,-272C637.15,-272 644.85,-279 677,-279"/>
<path fill="none" stroke="#000000" stroke-width="2" d="M605,-274C635.81,-273.48 643.5,-280.48 677,-281"/>
</g>
<!-- MW_2&#45;&#45;RSMS -->
<g id="edge14" class="edge">
<title>MW_2:e&#45;&#45;RSMS:w</title>
<path fill="none" stroke="#000000" stroke-width="2" d="M605,-259C635.89,-259.42 643.67,-253.42 677,-253"/>
<path fill="none" stroke="#ff66cc" stroke-width="2" d="M605,-261C637.11,-261 644.89,-255 677,-255"/>
<path fill="none" stroke="#000000" stroke-width="2" d="M605,-263C638.33,-262.58 646.11,-256.58 677,-257"/>
</g>
</g>
</svg>
